<svg xmlns="http://www.w3.org/2000/svg" version="1.1" xmlns:xlink="http://www.w3.org/1999/xlink" width="1000" height="1000"><g clip-path="url(#SvgjsClipPath1118)"><rect width="1000" height="1000" fill="#ffffff"></rect><g transform="matrix(2,0,0,2,0,0)"><svg xmlns="http://www.w3.org/2000/svg" version="1.1" xmlns:xlink="http://www.w3.org/1999/xlink" width="500" height="500"><svg xmlns="http://www.w3.org/2000/svg" width="500" height="500" viewBox="0 0 1000 1000">
	<rect x="0" y="0" width="100%" height="100%" fill="#000"></rect>
	<g transform="matrix(1 0 0 1 500 500)">
		<g transform="matrix(22.045 0 0 22.045 -212.3276 0.0254)">
			<path fill="#fff" transform="translate(-12, -11.5)" d="M 1 21 h 22 L 12 2"></path>
		</g>
		<g transform="matrix(20.9725 0 0 20.9725 245.0971 -0.0002)">
			<path fill="#fff" transform="translate(-12, -12)" d="M 15 2.013 H 9 V 9 H 2 v 6 h 7 v 6.987 h 6 V 15 h 7 V 9 h -7 z"></path>
		</g>
	</g>
</svg></svg></g></g><defs><clipPath id="SvgjsClipPath1118"><rect width="1000" height="1000" x="0" y="0" rx="500" ry="500"></rect></clipPath></defs></svg>