<svg width="1200" height="630" viewBox="0 0 1200 630" xmlns="http://www.w3.org/2000/svg"><rect x="0" y="0" width="1200" height="630" fill="#000"/><clipPath id="satori_cp-id-0"><rect x="550" y="243" width="100" height="100"/></clipPath><mask id="satori_om-id-0"><rect x="550" y="243" width="100" height="100" fill="#fff"/></mask><image x="550" y="243" width="100" height="100" href="data:image/svg+xml;utf8,%3Csvg  xmlns=%22http://www.w3.org/2000/svg%22 width=%22100%22 height=%22100%22 viewBox=%220 0 1000 1000%22%3E%3Cg transform=%22matrix(1 0 0 1 500 500)%22%3E%3Cg transform=%22matrix(22.045 0 0 22.045 -212.3276 0.0254)%22%3E%3Cpath fill=%22%23fff%22 transform=%22translate(-12, -11.5)%22 d=%22M1 21h22L12 2%22%3E%3C/path%3E%3C/g%3E%3Cg transform=%22matrix(20.9725 0 0 20.9725 245.0971 -0.0002)%22%3E%3Cpath fill=%22%23fff%22 transform=%22translate(-12, -12)%22 d=%22M15 2.013H9V9H2v6h7v6.987h6V15h7V9h-7z%22%3E%3C/path%3E%3C/g%3E%3C/g%3E%3C/svg%3E" preserveAspectRatio="none" clip-path="url(#satori_cp-id-0)" mask="url(#satori_om-id-0)"/><path fill="#fff" d="M299.1 379.2L294.8 379.2L294.8 358.8L299.1 358.8L299.1 367.2L307.8 367.2L307.8 358.8L312.1 358.8L312.1 379.2L307.8 379.2L307.8 370.8L299.1 370.8L299.1 379.2ZM322.5 379.5L322.5 379.5Q320.2 379.5 318.5 378.5Q316.8 377.6 315.9 375.8Q315.0 374.1 315.0 371.6L315.0 371.6Q315.0 369.3 315.9 367.5Q316.8 365.7 318.5 364.7Q320.1 363.7 322.4 363.7L322.4 363.7Q323.9 363.7 325.2 364.2Q326.5 364.7 327.5 365.7Q328.5 366.6 329.0 368.1Q329.6 369.5 329.6 371.5L329.6 371.5L329.6 372.7L316.7 372.7L316.7 370.0L325.6 370.0Q325.6 369.1 325.2 368.4Q324.8 367.7 324.1 367.3Q323.4 366.9 322.4 366.9L322.4 366.9Q321.5 366.9 320.7 367.3Q320.0 367.8 319.6 368.5Q319.2 369.3 319.2 370.2L319.2 370.2L319.2 372.7Q319.2 373.8 319.6 374.6Q320.0 375.4 320.8 375.9Q321.5 376.3 322.6 376.3L322.6 376.3Q323.3 376.3 323.9 376.1Q324.5 375.9 324.9 375.5Q325.3 375.2 325.5 374.6L325.5 374.6L329.5 374.8Q329.2 376.2 328.2 377.3Q327.3 378.3 325.9 378.9Q324.4 379.5 322.5 379.5ZM332.3 358.8L336.6 358.8L336.6 379.2L332.3 379.2L332.3 358.8ZM339.9 358.8L344.2 358.8L344.2 379.2L339.9 379.2L339.9 358.8ZM354.4 379.5L354.4 379.5Q352.1 379.5 350.4 378.5Q348.8 377.5 347.8 375.8Q346.9 374.0 346.9 371.6L346.9 371.6Q346.9 369.3 347.8 367.5Q348.8 365.7 350.4 364.7Q352.1 363.7 354.4 363.7L354.4 363.7Q356.8 363.7 358.5 364.7Q360.1 365.7 361.1 367.5Q362.0 369.3 362.0 371.6L362.0 371.6Q362.0 374.0 361.1 375.8Q360.1 377.5 358.5 378.5Q356.8 379.5 354.4 379.5ZM354.5 376.2L354.5 376.2Q355.5 376.2 356.2 375.6Q356.9 375.0 357.3 374.0Q357.7 372.9 357.7 371.6L357.7 371.6Q357.7 370.3 357.3 369.2Q356.9 368.2 356.2 367.6Q355.5 367.0 354.5 367.0L354.5 367.0Q353.4 367.0 352.7 367.6Q352.0 368.2 351.6 369.2Q351.2 370.3 351.2 371.6L351.2 371.6Q351.2 372.9 351.6 374.0Q352.0 375.0 352.7 375.6Q353.4 376.2 354.5 376.2Z M375.5 370.4L375.5 370.4L375.5 379.2L371.2 379.2L371.2 358.8L375.3 358.8L375.3 366.6L375.5 366.6Q376.0 365.3 377.2 364.5Q378.3 363.7 380.1 363.7L380.1 363.7Q381.7 363.7 382.9 364.4Q384.0 365.1 384.7 366.4Q385.4 367.7 385.4 369.5L385.4 369.5L385.4 379.2L381.1 379.2L381.1 370.2Q381.1 368.8 380.4 368.0Q379.7 367.3 378.4 367.3L378.4 367.3Q377.5 367.3 376.9 367.6Q376.2 368.0 375.8 368.7Q375.5 369.4 375.5 370.4ZM398.5 372.7L398.5 372.7L398.5 363.9L402.7 363.9L402.7 379.2L398.7 379.2L398.7 376.4L398.5 376.4Q398.0 377.8 396.8 378.6Q395.6 379.4 393.9 379.4L393.9 379.4Q392.3 379.4 391.2 378.7Q390.0 378.0 389.4 376.7Q388.7 375.4 388.7 373.7L388.7 373.7L388.7 363.9L392.9 363.9L392.9 372.9Q392.9 374.3 393.7 375.0Q394.4 375.8 395.6 375.8L395.6 375.8Q396.3 375.8 397.0 375.5Q397.7 375.1 398.1 374.4Q398.5 373.7 398.5 372.7ZM410.3 379.2L406.1 379.2L406.1 363.9L410.2 363.9L410.2 366.6L410.3 366.6Q410.8 365.3 411.9 364.5Q413.0 363.7 414.6 363.7L414.6 363.7Q416.2 363.7 417.3 364.5Q418.4 365.3 418.7 366.6L418.7 366.6L418.9 366.6Q419.4 365.3 420.6 364.5Q421.8 363.7 423.5 363.7L423.5 363.7Q425.6 363.7 427.0 365.1Q428.3 366.5 428.3 368.9L428.3 368.9L428.3 379.2L424.1 379.2L424.1 369.8Q424.1 368.5 423.4 367.9Q422.7 367.2 421.7 367.2L421.7 367.2Q420.6 367.2 419.9 368.0Q419.3 368.7 419.3 369.9L419.3 369.9L419.3 379.2L415.2 379.2L415.2 369.7Q415.2 368.6 414.5 367.9Q413.9 367.2 412.8 367.2L412.8 367.2Q412.1 367.2 411.6 367.6Q411.0 367.9 410.7 368.6Q410.3 369.2 410.3 370.0L410.3 370.0L410.3 379.2ZM436.0 379.5L436.0 379.5Q434.5 379.5 433.4 379.0Q432.3 378.5 431.6 377.5Q430.9 376.5 430.9 374.9L430.9 374.9Q430.9 373.7 431.4 372.8Q431.9 371.9 432.7 371.4Q433.5 370.9 434.5 370.6Q435.5 370.3 436.7 370.2L436.7 370.2Q438.0 370.1 438.8 370.0Q439.6 369.9 440 369.6Q440.4 369.4 440.4 368.9L440.4 368.9L440.4 368.8Q440.4 367.9 439.8 367.3Q439.2 366.8 438.1 366.8L438.1 366.8Q437.0 366.8 436.3 367.3Q435.6 367.8 435.4 368.6L435.4 368.6L431.5 368.3Q431.8 366.9 432.6 365.9Q433.5 364.8 434.9 364.3Q436.3 363.7 438.1 363.7L438.1 363.7Q439.4 363.7 440.6 364.0Q441.7 364.3 442.6 365.0Q443.5 365.6 444.1 366.6Q444.6 367.5 444.6 368.9L444.6 368.9L444.6 379.2L440.6 379.2L440.6 377.1L440.5 377.1Q440.1 377.8 439.5 378.3Q438.9 378.9 438.0 379.2Q437.1 379.5 436.0 379.5ZM437.2 376.6L437.2 376.6Q438.2 376.6 438.9 376.2Q439.6 375.8 440.0 375.2Q440.4 374.6 440.4 373.7L440.4 373.7L440.4 372.1Q440.2 372.3 439.9 372.4Q439.5 372.5 439.1 372.6Q438.7 372.6 438.2 372.7Q437.8 372.8 437.5 372.8L437.5 372.8Q436.7 372.9 436.2 373.2Q435.6 373.4 435.3 373.8Q435.0 374.2 435.0 374.8L435.0 374.8Q435.0 375.7 435.6 376.1Q436.2 376.6 437.2 376.6ZM452.1 370.4L452.1 370.4L452.1 379.2L447.9 379.2L447.9 363.9L451.9 363.9L451.9 366.6L452.1 366.6Q452.6 365.3 453.8 364.5Q455.0 363.7 456.7 363.7L456.7 363.7Q458.3 363.7 459.5 364.4Q460.7 365.1 461.3 366.4Q462.0 367.7 462.0 369.5L462.0 369.5L462.0 379.2L457.7 379.2L457.7 370.2Q457.7 368.8 457.0 368.0Q456.3 367.3 455.0 367.3L455.0 367.3Q454.2 367.3 453.5 367.6Q452.9 368.0 452.5 368.7Q452.1 369.4 452.1 370.4ZM478.0 368.3L478.0 368.3L474.1 368.5Q474.0 368.0 473.7 367.6Q473.4 367.2 472.8 367.0Q472.3 366.7 471.6 366.7L471.6 366.7Q470.6 366.7 469.9 367.2Q469.2 367.6 469.2 368.3L469.2 368.3Q469.2 368.8 469.7 369.2Q470.1 369.6 471.2 369.8L471.2 369.8L473.9 370.3Q476.2 370.8 477.3 371.8Q478.4 372.8 478.4 374.5L478.4 374.5Q478.4 376.0 477.5 377.1Q476.6 378.2 475.1 378.9Q473.5 379.5 471.6 379.5L471.6 379.5Q468.5 379.5 466.7 378.2Q464.9 377.0 464.6 374.8L464.6 374.8L468.8 374.6Q469.0 375.5 469.7 376.0Q470.4 376.5 471.6 376.5L471.6 376.5Q472.7 376.5 473.4 376.0Q474.0 375.6 474.1 374.9L474.1 374.9Q474.0 374.3 473.6 374.0Q473.1 373.6 472.1 373.4L472.1 373.4L469.5 372.9Q467.2 372.4 466.1 371.3Q465.0 370.2 465.0 368.5L465.0 368.5Q465.0 367.0 465.8 366.0Q466.6 364.9 468.1 364.3Q469.6 363.7 471.5 363.7L471.5 363.7Q474.4 363.7 476.1 365.0Q477.7 366.2 478.0 368.3ZM482.1 376.4L485.6 376.4L485.5 377.5Q485.4 378.8 485.0 380.1Q484.7 381.4 484.3 382.5Q483.9 383.6 483.7 384.2L483.7 384.2L480.9 384.2Q481.1 383.6 481.3 382.5Q481.6 381.5 481.8 380.2Q482.0 378.9 482.1 377.5L482.1 377.5L482.1 376.4Z M500.2 379.2L496.0 379.2L496.0 363.9L500.0 363.9L500.0 366.6L500.2 366.6Q500.7 365.3 501.8 364.5Q502.9 363.7 504.5 363.7L504.5 363.7Q506.1 363.7 507.2 364.5Q508.3 365.3 508.6 366.6L508.6 366.6L508.8 366.6Q509.3 365.3 510.5 364.5Q511.7 363.7 513.4 363.7L513.4 363.7Q515.5 363.7 516.9 365.1Q518.2 366.5 518.2 368.9L518.2 368.9L518.2 379.2L514.0 379.2L514.0 369.8Q514.0 368.5 513.3 367.9Q512.6 367.2 511.6 367.2L511.6 367.2Q510.5 367.2 509.8 368.0Q509.2 368.7 509.2 369.9L509.2 369.9L509.2 379.2L505.1 379.2L505.1 369.7Q505.1 368.6 504.4 367.9Q503.8 367.2 502.7 367.2L502.7 367.2Q502.0 367.2 501.5 367.6Q500.9 367.9 500.6 368.6Q500.2 369.2 500.2 370.0L500.2 370.0L500.2 379.2ZM523.6 384.9L523.6 384.9Q522.8 384.9 522.1 384.8Q521.4 384.7 520.9 384.5L520.9 384.5L521.9 381.3Q522.6 381.6 523.2 381.6Q523.8 381.6 524.3 381.3Q524.7 381.0 525.0 380.3L525.0 380.3L525.3 379.6L519.8 363.9L524.2 363.9L527.4 375.2L527.5 375.2L530.7 363.9L535.2 363.9L529.3 380.9Q528.9 382.1 528.1 383.0Q527.4 383.9 526.3 384.4Q525.2 384.9 523.6 384.9Z M548.7 370.4L548.7 370.4L548.7 379.2L544.4 379.2L544.4 363.9L548.5 363.9L548.5 366.6L548.7 366.6Q549.2 365.3 550.4 364.5Q551.6 363.7 553.3 363.7L553.3 363.7Q554.8 363.7 556.0 364.4Q557.2 365.1 557.9 366.4Q558.5 367.7 558.5 369.5L558.5 369.5L558.5 379.2L554.3 379.2L554.3 370.2Q554.3 368.8 553.6 368.0Q552.8 367.3 551.6 367.3L551.6 367.3Q550.7 367.3 550.1 367.6Q549.4 368.0 549.1 368.7Q548.7 369.4 548.7 370.4ZM566.2 379.5L566.2 379.5Q564.7 379.5 563.6 379.0Q562.5 378.5 561.8 377.5Q561.1 376.5 561.1 374.9L561.1 374.9Q561.1 373.7 561.6 372.8Q562.1 371.9 562.9 371.4Q563.7 370.9 564.7 370.6Q565.7 370.3 566.9 370.2L566.9 370.2Q568.2 370.1 569.0 370.0Q569.8 369.9 570.2 369.6Q570.6 369.4 570.6 368.9L570.6 368.9L570.6 368.8Q570.6 367.9 570.0 367.3Q569.4 366.8 568.3 366.8L568.3 366.8Q567.2 366.8 566.5 367.3Q565.8 367.8 565.6 368.6L565.6 368.6L561.7 368.3Q562.0 366.9 562.8 365.9Q563.7 364.8 565.1 364.3Q566.5 363.7 568.3 363.7L568.3 363.7Q569.6 363.7 570.8 364.0Q571.9 364.3 572.8 365.0Q573.8 365.6 574.3 366.6Q574.8 367.5 574.8 368.9L574.8 368.9L574.8 379.2L570.8 379.2L570.8 377.1L570.7 377.1Q570.3 377.8 569.7 378.3Q569.1 378.9 568.2 379.2Q567.3 379.5 566.2 379.5ZM567.4 376.6L567.4 376.6Q568.4 376.6 569.1 376.2Q569.8 375.8 570.2 375.2Q570.6 374.6 570.6 373.7L570.6 373.7L570.6 372.1Q570.4 372.3 570.1 372.4Q569.7 372.5 569.3 372.6Q568.9 372.6 568.4 372.7Q568.0 372.8 567.7 372.8L567.7 372.8Q566.9 372.9 566.4 373.2Q565.8 373.4 565.5 373.8Q565.2 374.2 565.2 374.8L565.2 374.8Q565.2 375.7 565.8 376.1Q566.4 376.6 567.4 376.6ZM582.3 379.2L578.1 379.2L578.1 363.9L582.1 363.9L582.1 366.6L582.3 366.6Q582.8 365.3 583.9 364.5Q585.0 363.7 586.6 363.7L586.6 363.7Q588.1 363.7 589.2 364.5Q590.4 365.3 590.7 366.6L590.7 366.6L590.9 366.6Q591.3 365.3 592.6 364.5Q593.8 363.7 595.5 363.7L595.5 363.7Q597.6 363.7 599.0 365.1Q600.3 366.5 600.3 368.9L600.3 368.9L600.3 379.2L596.1 379.2L596.1 369.8Q596.1 368.5 595.4 367.9Q594.7 367.2 593.7 367.2L593.7 367.2Q592.5 367.2 591.9 368.0Q591.3 368.7 591.3 369.9L591.3 369.9L591.3 379.2L587.1 379.2L587.1 369.7Q587.1 368.6 586.5 367.9Q585.9 367.2 584.8 367.2L584.8 367.2Q584.1 367.2 583.6 367.6Q583.0 367.9 582.7 368.6Q582.3 369.2 582.3 370.0L582.3 370.0L582.3 379.2ZM610.6 379.5L610.6 379.5Q608.2 379.5 606.5 378.5Q604.8 377.6 603.9 375.8Q603.0 374.1 603.0 371.6L603.0 371.6Q603.0 369.3 603.9 367.5Q604.8 365.7 606.5 364.7Q608.2 363.7 610.4 363.7L610.4 363.7Q611.9 363.7 613.2 364.2Q614.6 364.7 615.5 365.7Q616.5 366.6 617.1 368.1Q617.6 369.5 617.6 371.5L617.6 371.5L617.6 372.7L604.7 372.7L604.7 370.0L613.6 370.0Q613.6 369.1 613.2 368.4Q612.8 367.7 612.1 367.3Q611.4 366.9 610.5 366.9L610.5 366.9Q609.5 366.9 608.8 367.3Q608.0 367.8 607.6 368.5Q607.2 369.3 607.2 370.2L607.2 370.2L607.2 372.7Q607.2 373.8 607.6 374.6Q608.0 375.4 608.8 375.9Q609.6 376.3 610.7 376.3L610.7 376.3Q611.4 376.3 612.0 376.1Q612.5 375.9 613.0 375.5Q613.4 375.2 613.6 374.6L613.6 374.6L617.5 374.8Q617.2 376.2 616.3 377.3Q615.4 378.3 613.9 378.9Q612.5 379.5 610.6 379.5Z M631.1 379.2L626.9 379.2L626.9 363.9L631.1 363.9L631.1 379.2ZM629.0 362.0L629.0 362.0Q628.0 362.0 627.4 361.3Q626.7 360.7 626.7 359.8L626.7 359.8Q626.7 358.9 627.4 358.3Q628.0 357.7 629.0 357.7L629.0 357.7Q629.9 357.7 630.6 358.3Q631.3 358.9 631.3 359.8L631.3 359.8Q631.3 360.7 630.6 361.3Q629.9 362.0 629.0 362.0ZM647.2 368.3L647.2 368.3L643.3 368.5Q643.2 368.0 642.9 367.6Q642.6 367.2 642.0 367.0Q641.5 366.7 640.8 366.7L640.8 366.7Q639.8 366.7 639.1 367.2Q638.4 367.6 638.4 368.3L638.4 368.3Q638.4 368.8 638.9 369.2Q639.3 369.6 640.4 369.8L640.4 369.8L643.1 370.3Q645.3 370.8 646.4 371.8Q647.5 372.8 647.5 374.5L647.5 374.5Q647.5 376.0 646.7 377.1Q645.8 378.2 644.2 378.9Q642.7 379.5 640.7 379.5L640.7 379.5Q637.7 379.5 635.9 378.2Q634.1 377.0 633.8 374.8L633.8 374.8L638.0 374.6Q638.2 375.5 638.9 376.0Q639.6 376.5 640.7 376.5L640.7 376.5Q641.9 376.5 642.5 376.0Q643.2 375.6 643.2 374.9L643.2 374.9Q643.2 374.3 642.7 374.0Q642.3 373.6 641.3 373.4L641.3 373.4L638.6 372.9Q636.4 372.4 635.3 371.3Q634.2 370.2 634.2 368.5L634.2 368.5Q634.2 367.0 635.0 366.0Q635.8 364.9 637.3 364.3Q638.7 363.7 640.7 363.7L640.7 363.7Q643.6 363.7 645.2 365.0Q646.9 366.2 647.2 368.3Z M669.8 379.2L656.8 379.2L656.8 358.8L661.1 358.8L661.1 375.7L669.8 375.7L669.8 379.2ZM679.5 379.5L679.5 379.5Q677.2 379.5 675.5 378.5Q673.8 377.5 672.9 375.8Q672.0 374.0 672.0 371.6L672.0 371.6Q672.0 369.3 672.9 367.5Q673.8 365.7 675.5 364.7Q677.2 363.7 679.5 363.7L679.5 363.7Q681.8 363.7 683.5 364.7Q685.2 365.7 686.1 367.5Q687.0 369.3 687.0 371.6L687.0 371.6Q687.0 374.0 686.1 375.8Q685.2 377.5 683.5 378.5Q681.8 379.5 679.5 379.5ZM679.5 376.2L679.5 376.2Q680.6 376.2 681.3 375.6Q682.0 375.0 682.3 374.0Q682.7 372.9 682.7 371.6L682.7 371.6Q682.7 370.3 682.3 369.2Q682.0 368.2 681.3 367.6Q680.6 367.0 679.5 367.0L679.5 367.0Q678.4 367.0 677.7 367.6Q677.0 368.2 676.6 369.2Q676.3 370.3 676.3 371.6L676.3 371.6Q676.3 372.9 676.6 374.0Q677.0 375.0 677.7 375.6Q678.4 376.2 679.5 376.2ZM694.0 370.4L694.0 370.4L694.0 379.2L689.8 379.2L689.8 363.9L693.8 363.9L693.8 366.6L694.0 366.6Q694.5 365.3 695.7 364.5Q696.9 363.7 698.6 363.7L698.6 363.7Q700.2 363.7 701.4 364.4Q702.5 365.1 703.2 366.4Q703.9 367.7 703.9 369.5L703.9 369.5L703.9 379.2L699.6 379.2L699.6 370.2Q699.6 368.8 698.9 368.0Q698.2 367.3 696.9 367.3L696.9 367.3Q696.0 367.3 695.4 367.6Q694.7 368.0 694.4 368.7Q694.0 369.4 694.0 370.4ZM714.1 385.3L714.1 385.3Q712.0 385.3 710.5 384.7Q709.1 384.1 708.2 383.2Q707.3 382.2 707.1 381.0L707.1 381.0L711.0 380.5Q711.2 380.9 711.6 381.3Q712.0 381.7 712.6 382.0Q713.2 382.2 714.2 382.2L714.2 382.2Q715.5 382.2 716.4 381.5Q717.3 380.9 717.3 379.3L717.3 379.3L717.3 376.5L717.2 376.5Q716.9 377.1 716.3 377.7Q715.8 378.3 714.9 378.6Q714.0 379.0 712.8 379.0L712.8 379.0Q711.1 379.0 709.7 378.2Q708.3 377.4 707.4 375.7Q706.6 374.1 706.6 371.5L706.6 371.5Q706.6 368.9 707.5 367.2Q708.3 365.5 709.7 364.6Q711.1 363.7 712.8 363.7L712.8 363.7Q714.1 363.7 714.9 364.2Q715.8 364.6 716.3 365.2Q716.9 365.9 717.2 366.5L717.2 366.5L717.3 366.5L717.3 363.9L721.5 363.9L721.5 379.4Q721.5 381.3 720.6 382.6Q719.6 383.9 717.9 384.6Q716.3 385.3 714.1 385.3ZM714.2 375.8L714.2 375.8Q715.2 375.8 715.9 375.3Q716.6 374.8 717.0 373.8Q717.4 372.9 717.4 371.5L717.4 371.5Q717.4 370.2 717.0 369.2Q716.6 368.2 715.9 367.7Q715.2 367.1 714.2 367.1L714.2 367.1Q713.1 367.1 712.4 367.7Q711.7 368.2 711.3 369.2Q710.9 370.2 710.9 371.5L710.9 371.5Q710.9 372.8 711.3 373.8Q711.7 374.8 712.4 375.3Q713.1 375.8 714.2 375.8Z M744.2 358.8L748.5 358.8L748.5 379.2L744.8 379.2L735.9 366.4L735.8 366.4L735.8 379.2L731.5 379.2L731.5 358.8L735.3 358.8L744.1 371.7L744.2 371.7L744.2 358.8ZM756.2 370.4L756.2 370.4L756.2 379.2L752.0 379.2L752.0 358.8L756.1 358.8L756.1 366.6L756.3 366.6Q756.8 365.3 758.0 364.5Q759.1 363.7 760.8 363.7L760.8 363.7Q762.4 363.7 763.6 364.4Q764.8 365.1 765.5 366.4Q766.1 367.7 766.1 369.5L766.1 369.5L766.1 379.2L761.9 379.2L761.9 370.2Q761.9 368.8 761.2 368.0Q760.5 367.3 759.2 367.3L759.2 367.3Q758.3 367.3 757.6 367.6Q757.0 368.0 756.6 368.7Q756.2 369.4 756.2 370.4ZM773.8 379.5L773.8 379.5Q772.4 379.5 771.2 379.0Q770.1 378.5 769.4 377.5Q768.8 376.5 768.8 374.9L768.8 374.9Q768.8 373.7 769.2 372.8Q769.7 371.9 770.5 371.4Q771.3 370.9 772.3 370.6Q773.4 370.3 774.5 370.2L774.5 370.2Q775.8 370.1 776.6 370.0Q777.5 369.9 777.8 369.6Q778.2 369.4 778.2 368.9L778.2 368.9L778.2 368.8Q778.2 367.9 777.6 367.3Q777.0 366.8 775.9 366.8L775.9 366.8Q774.8 366.8 774.1 367.3Q773.4 367.8 773.2 368.6L773.2 368.6L769.3 368.3Q769.6 366.9 770.5 365.9Q771.3 364.8 772.7 364.3Q774.1 363.7 775.9 363.7L775.9 363.7Q777.2 363.7 778.4 364.0Q779.5 364.3 780.5 365.0Q781.4 365.6 781.9 366.6Q782.4 367.5 782.4 368.9L782.4 368.9L782.4 379.2L778.4 379.2L778.4 377.1L778.3 377.1Q777.9 377.8 777.3 378.3Q776.7 378.9 775.8 379.2Q775.0 379.5 773.8 379.5ZM775.0 376.6L775.0 376.6Q776.0 376.6 776.7 376.2Q777.4 375.8 777.8 375.2Q778.2 374.6 778.2 373.7L778.2 373.7L778.2 372.1Q778.0 372.3 777.7 372.4Q777.3 372.5 776.9 372.6Q776.5 372.6 776.0 372.7Q775.6 372.8 775.3 372.8L775.3 372.8Q774.5 372.9 774.0 373.2Q773.4 373.4 773.1 373.8Q772.8 374.2 772.8 374.8L772.8 374.8Q772.8 375.7 773.4 376.1Q774.1 376.6 775.0 376.6ZM784.6 363.9L793.8 363.9L793.8 367.1L784.6 367.1L784.6 363.9ZM786.7 375.1L786.7 360.3L791.0 360.3L791.0 374.5Q791.0 375.1 791.1 375.4Q791.3 375.7 791.6 375.9Q792.0 376.0 792.4 376.0L792.4 376.0Q792.7 376.0 793.0 376.0Q793.3 375.9 793.5 375.9L793.5 375.9L794.1 379.0Q793.8 379.1 793.2 379.3Q792.6 379.4 791.8 379.4L791.8 379.4Q790.3 379.5 789.1 379.0Q788.0 378.5 787.4 377.6Q786.7 376.6 786.7 375.1L786.7 375.1Z M815.9 358.8L820.2 358.8L820.2 379.2L816.5 379.2L807.6 366.4L807.5 366.4L807.5 379.2L803.2 379.2L803.2 358.8L806.9 358.8L815.7 371.7L815.9 371.7L815.9 358.8ZM830.5 385.3L830.5 385.3Q828.5 385.3 827.0 384.7Q825.6 384.1 824.7 383.2Q823.8 382.2 823.6 381.0L823.6 381.0L827.5 380.5Q827.7 380.9 828.1 381.3Q828.4 381.7 829.1 382.0Q829.7 382.2 830.6 382.2L830.6 382.2Q832.0 382.2 832.9 381.5Q833.8 380.9 833.8 379.3L833.8 379.3L833.8 376.5L833.7 376.5Q833.4 377.1 832.8 377.7Q832.3 378.3 831.4 378.6Q830.5 379.0 829.3 379.0L829.3 379.0Q827.6 379.0 826.2 378.2Q824.8 377.4 823.9 375.7Q823.1 374.1 823.1 371.5L823.1 371.5Q823.1 368.9 823.9 367.2Q824.8 365.5 826.2 364.6Q827.6 363.7 829.3 363.7L829.3 363.7Q830.6 363.7 831.4 364.2Q832.3 364.6 832.8 365.2Q833.4 365.9 833.7 366.5L833.7 366.5L833.8 366.5L833.8 363.9L838.0 363.9L838.0 379.4Q838.0 381.3 837.1 382.6Q836.1 383.9 834.4 384.6Q832.7 385.3 830.5 385.3ZM830.6 375.8L830.6 375.8Q831.7 375.8 832.4 375.3Q833.1 374.8 833.5 373.8Q833.8 372.9 833.8 371.5L833.8 371.5Q833.8 370.2 833.5 369.2Q833.1 368.2 832.4 367.7Q831.7 367.1 830.6 367.1L830.6 367.1Q829.6 367.1 828.9 367.7Q828.2 368.2 827.8 369.2Q827.4 370.2 827.4 371.5L827.4 371.5Q827.4 372.8 827.8 373.8Q828.2 374.8 828.9 375.3Q829.6 375.8 830.6 375.8ZM851.2 372.7L851.2 372.7L851.2 363.9L855.4 363.9L855.4 379.2L851.4 379.2L851.4 376.4L851.2 376.4Q850.7 377.8 849.5 378.6Q848.3 379.4 846.6 379.4L846.6 379.4Q845.0 379.4 843.9 378.7Q842.7 378.0 842.1 376.7Q841.4 375.4 841.4 373.7L841.4 373.7L841.4 363.9L845.6 363.9L845.6 372.9Q845.6 374.3 846.4 375.0Q847.1 375.8 848.3 375.8L848.3 375.8Q849.0 375.8 849.7 375.5Q850.4 375.1 850.8 374.4Q851.2 373.7 851.2 372.7ZM861.4 384.9L861.4 384.9Q860.6 384.9 859.9 384.8Q859.2 384.7 858.8 384.5L858.8 384.5L859.7 381.3Q860.5 381.6 861.1 381.6Q861.7 381.6 862.1 381.3Q862.5 381.0 862.8 380.3L862.8 380.3L863.1 379.6L857.6 363.9L862.0 363.9L865.2 375.2L865.4 375.2L868.6 363.9L873.0 363.9L867.1 380.9Q866.7 382.1 866.0 383.0Q865.2 383.9 864.1 384.4Q863.0 384.9 861.4 384.9ZM881.7 379.5L881.7 379.5Q879.3 379.5 877.6 378.5Q875.9 377.6 875.0 375.8Q874.1 374.1 874.1 371.6L874.1 371.6Q874.1 369.3 875.0 367.5Q875.9 365.7 877.6 364.7Q879.3 363.7 881.5 363.7L881.5 363.7Q883.0 363.7 884.3 364.2Q885.6 364.7 886.6 365.7Q887.6 366.6 888.1 368.1Q888.7 369.5 888.7 371.5L888.7 371.5L888.7 372.7L875.8 372.7L875.8 370.0L884.7 370.0Q884.7 369.1 884.3 368.4Q883.9 367.7 883.2 367.3Q882.5 366.9 881.6 366.9L881.6 366.9Q880.6 366.9 879.9 367.3Q879.1 367.8 878.7 368.5Q878.3 369.3 878.3 370.2L878.3 370.2L878.3 372.7Q878.3 373.8 878.7 374.6Q879.1 375.4 879.9 375.9Q880.7 376.3 881.7 376.3L881.7 376.3Q882.4 376.3 883.0 376.1Q883.6 375.9 884.0 375.5Q884.5 375.2 884.7 374.6L884.7 374.6L888.6 374.8Q888.3 376.2 887.4 377.3Q886.4 378.3 885.0 378.9Q883.6 379.5 881.7 379.5ZM895.7 370.4L895.7 370.4L895.7 379.2L891.4 379.2L891.4 363.9L895.5 363.9L895.5 366.6L895.7 366.6Q896.2 365.3 897.4 364.5Q898.5 363.7 900.3 363.7L900.3 363.7Q901.8 363.7 903.0 364.4Q904.2 365.1 904.9 366.4Q905.5 367.7 905.5 369.5L905.5 369.5L905.5 379.2L901.3 379.2L901.3 370.2Q901.3 368.8 900.6 368.0Q899.8 367.3 898.6 367.3L898.6 367.3Q897.7 367.3 897.1 367.6Q896.4 368.0 896.0 368.7Q895.7 369.4 895.7 370.4Z "/></svg>