<svg xmlns="http://www.w3.org/2000/svg" width="666.667" height="666.667" preserveAspectRatio="xMidYMid meet" version="1.0" viewBox="0 0 500 500"><metadata>Created by potrace 1.14, written by Peter Selinger 2001-2017</metadata><g fill="#000" stroke="none"><path d="M1157 2492 l-447 -777 450 -3 c247 -1 651 -1 898 0 l447 3 -445 772 c-245 424 -447 774 -450 777 -3 2 -206 -345 -453 -772z" transform="translate(0.000000,500.000000) scale(0.100000,-0.100000)"/><path d="M3260 3005 l0 -255 -255 0 -255 0 0 -250 0 -250 255 0 255 0 0 -255 0 -255 250 0 250 0 2 253 3 252 253 3 252 2 0 250 0 250 -255 0 -255 0 0 255 0 255 -250 0 -250 0 0 -255z" transform="translate(0.000000,500.000000) scale(0.100000,-0.100000)"/></g></svg>